<?xml version="1.0" encoding="UTF-8"?>
<svg id="Layer_1" data-name="Layer 1" xmlns="http://www.w3.org/2000/svg" viewBox="0 0 2340.96 2406.6">

  <path fill="#f06800" d="M1339.71,2354.52c-45.75,79.95-152.5-.75-248.05-15.25-95.6-14.5-192.3.75-239.15-7.45s-52.8-50.95-23.8-60.25c0,0-63.55-21.25-25.05-69.8,0,0-40.4-28,8.3-65.2,8.55-6.5,20.8-10.85,36-13,53.25-7.6,142.35,11.7,231.8,58,53.25,27.6,100.85,41.5,136.55,48.5,41.4,8.1,66.85,6.9,66.85,6.9,0,0,102.3,37.6,56.55,117.55Z"/>
  <path fill="#e54200" d="M1339.71,2354.52c-45.75,79.95-152.5-.75-248.05-15.25-95.6-14.5-192.3.75-239.15-7.45s-52.8-50.95-23.8-60.25c0,0-63.55-21.25-25.05-69.8,0,0-40.4-28,8.3-65.2,8.55-6.5,20.8-10.85,36-13-39.25,20.5-1.7,61.75-1.7,61.75-40.35,40.35,21.85,78.3,21.85,78.3,0,0-11.9,47.75,88.3,23.45,100.15-24.3,255.1,52.3,286.6,20.85,31.5-31.5-28.75-76.9-28.75-76.9l2.05-.95c41.4,8.1,66.85,6.9,66.85,6.9,0,0,102.3,37.6,56.55,117.55Z"/>
  <path fill="#010000" d="M1279.43,2406.6c-32.81,0-69.55-12.97-103.91-25.11-28.81-10.17-58.6-20.69-86.51-24.93-53.28-8.09-108.49-6.61-152.84-5.44-34.86.93-64.96,1.73-86.67-2.06-36.56-6.38-54.39-30.49-55.84-51.55-.56-8.18,1.13-15.85,4.69-22.47-9.33-6.92-18.62-16.81-22.61-30.24-2.85-9.58-3.67-23.75,5.51-40.81-5.39-7.02-10.52-16.91-10.8-29.31-.42-18.54,9.98-36.04,30.91-52.02,46.7-35.64,169.84-17,286.43,43.37,108.82,56.35,193.77,53.5,194.61,53.47,2.31-.09,4.64.26,6.8,1.05,2.38.87,58.34,21.89,75.08,67.78,8.64,23.69,5.48,48.87-9.39,74.86-18.58,32.49-45.37,43.4-75.45,43.4ZM990.42,2315.19c32.91,0,68.49,1.4,103.85,6.77,31.19,4.73,62.57,15.82,92.92,26.53,70.04,24.74,114.16,37.85,137.33-2.67,9.62-16.82,11.89-31.67,6.92-45.39-9.41-26.01-41.77-41.67-51.53-45.88-19.43.09-102.97-2.94-208.21-57.44-110.56-57.25-218.07-70.32-249.1-46.63-11.13,8.49-17.22,16.76-17.16,23.26.08,7.49,8.29,13.71,8.37,13.77,3.84,2.81,6.47,7.13,7.11,11.85s-.58,9.56-3.54,13.29c-7.06,8.9-9.79,16.35-8.1,22.13,2.84,9.73,18.11,17.82,25.05,20.22,7.13,2.46,11.92,9.21,11.84,16.75-.08,7.54-4.94,14.19-12.12,16.49-5.21,1.67-5.62,4.72-5.47,6.87.49,7.2,9.14,16.36,26.94,19.48,18.26,3.19,46.74,2.43,79.72,1.55,17.04-.45,35.64-.95,55.18-.95Z"/>
  <path fill="#010000" d="M792.68,2188.16c15.15-9.3,33-12.35,50.24-14.25,5.34-.5,10.65-.74,15.92-.87,11.73-.24,14.16,16.59,2.98,19.74-16.38,4.78-35.43,11.29-47.17,22.63-18.32,14.03-39.57-12.31-21.96-27.25h0Z"/>
  <path fill="#010000" d="M821.56,2255.6c19.34-5.51,38.14-9.32,58.36-9.86,5.56-.09,10.14,4.34,10.24,9.89.08,4.76-3.16,8.78-7.55,9.93-8.07,2.41-16.11,5.75-23.99,9.53-7.6,3.69-15.79,8.04-22.77,12.46-23.53,13.34-39.92-23.29-14.28-31.95h0Z"/>
  <path fill="#f06800" d="M2013.56,2155.67c-19.8,44.15-248.9,214.7-297.5,203.3-47.35-11.1-32.55-58-31.8-60.4-1.7,2.1-40.3,49.45-70.85,36.1-31.25-13.65-13.4-40.4-13.4-40.4-55.4,28.25-66.9-46.35-22.3-96.45,5.45-6.15,13.8-13,24.3-20.35,70.2-49.05,238.25-118.45,309.55-122.2,5.1-.25,9.7-.2,13.75.25,68.95,7.4,108.1,56,88.25,100.15Z"/>
  <path fill="#e54200" d="M2013.56,2155.67c-19.8,44.15-248.9,214.7-297.5,203.3-47.35-11.1-32.55-58-31.8-60.4-1.7,2.1-40.3,49.45-70.85,36.1-31.25-13.65-13.4-40.4-13.4-40.4-55.4,28.25-66.9-46.35-22.3-96.45,5.45-6.15,13.8-13,24.3-20.35l51.55,42.65s-65.45,80.6,64.5,37.1c0,0-31.25,44.75,49.55,37.05,80.85-7.7,228.7-155.4,164.9-207.45-11.65-9.5-18.3-20.4-20.95-31.55,5.1-.25,9.7-.2,13.75.25,68.95,7.4,108.1,56,88.25,100.15Z"/>
  <path fill="#010000" d="M1720.51,2376.9c-3.04,0-5.86-.29-8.44-.9-23.7-5.56-35.25-18.64-40.77-28.63-1.62-2.93-2.91-5.9-3.93-8.87-17.15,12.26-39.31,21.66-60.95,12.21-18.05-7.88-24.84-19.76-27.36-28.34-.43-1.48-.77-2.94-1.02-4.39h-.03c-19.25,0-30.2-11.59-33.9-16.38-21.06-27.29-11.85-79.07,20.54-115.43,47.15-52.92,286.41-156.22,362.55-148.07,44.34,4.79,81.21,25.78,98.63,56.17,12.48,21.78,13.8,46.13,3.72,68.57-14.32,31.85-97.13,96.44-143.81,129.58-55.59,39.47-127.32,84.49-165.23,84.49ZM1700.91,2304.07c-1.42,4.35-3.97,17.52,1.08,26.5,3.11,5.52,9.01,9.24,18.07,11.37,10.46,2.34,59.23-16.84,145.66-78.23,72.7-51.64,125.07-100.01,131.9-115.21,6.88-15.31,2.62-28.47-2.16-36.81-11.86-20.7-38.79-35.19-72.02-38.78-64.18-6.92-293.07,92.12-332.66,136.56-24.07,27.01-27.31,59.96-18.97,70.76,4.02,5.21,13.24,2.03,20.26-1.55,7.09-3.62,15.73-1.99,21.03,3.96,5.29,5.95,5.9,14.72,1.49,21.34-.98,1.59-2.74,6.02-1.94,8.6.61,1.97,3.44,4.18,7.76,6.06,13.28,5.81,39.26-17.39,50.23-31.08,5.32-6.64,14.64-8.51,22.1-4.4,7.42,4.08,10.86,12.89,8.15,20.91Z"/>
  <path fill="#010000" d="M1667.72,2292.96c10.5-22.99,28.23-42.04,48.09-57.12,6.37-4.87,13.14-9.09,19.94-13.09,4.77-2.8,10.91-1.2,13.71,3.57,2.6,4.41,1.4,9.98-2.52,13.01-20.46,17.01-38.51,39-46.01,64.67-7.95,21.71-39.83,11.15-33.21-11.03h0Z"/>
  <path fill="#010000" d="M1584.14,2286.91c17.07-28.5,35.86-54.76,63.2-74.61,10.03-6.9,21.36,6.86,12.75,15.37-19.96,19.84-33.94,47.76-44.19,73.93-9.6,23.2-43.24,7.69-31.76-14.7h0Z"/>
  <path fill="#edb104" d="M2103.56,1901.52c-344.75,531.7-1217.6,423.25-1424.35-42.4-82.8,36.8-86.3-46.05-44.15-197.85-98.05-3-36.75-84.1,50.6-178-52.35-40.65-7.4-79.8,96-117.95.15-.05.2-.05.2-.05-26.15-7.8-50.7-17-73.65-27.45-201.1-90.95-284.35-272.9-318.7-399.65-21.55-79.6-23.85-137.45-23.85-137.45,0,0-11.25-273.5,227.75-432.15,0,0-110.55,54.55-142.8-7.45-32.25-62,49.6-203.8,233.55-182.5,0,0-122.95-53.55-82.8-121.45C637.41-3.83,722.31-.08,826.51,108.37c23.4,24.35,56.85,36.55,90.3,31.95,189.9-25.9,353.95,13.45,483.2,92.25h.05c362.95,221.2,451.35,752.8,66.1,1020.35-.1.05-.15.05-.15.05-29.75,20.65-62.25,39.7-97.75,56.95,39.65-18.3,258.65-110.5,425.15,3,177.3,120.85,313.65,156.25,449.3,69.75,4.95-3.2,9.9-6.5,14.85-10,0,0,142.05,32,8.9,248.45,108.55,1.7,44.65,188.95-162.9,280.4Z"/>
  <g opacity="0.5">
    <path fill="#ffffff" d="M828.51,288.59s70.42-86.04,267.07-78.66,286.78,136.84,283.51,188.46c-3.28,51.62-60.2,7.51-116.76-10.24,0,0-166.22-63.12-347.01-36.08-155.27,23.23-86.81-63.48-86.81-63.48Z"/>
  </g>
  <g opacity="0.5">
    <path fill="#ffffff" d="M1163.86,1549.26s93.22-68.93,155.7-70.41c62.48-1.49,160.17,81.32,126.94,106.12-33.22,24.79-65.45-32.23-150.74-10.91-85.29,21.32-197.39,15.87-131.9-24.79Z"/>
  </g>
  <path fill="#ea6706" d="M1612.12,1597.85s85.4,31.74-12.09,115.04c0,0,53.55,59.01-56.33,97.19-1.52,133.49-348.49,131.03-467.22-35.99,0,0,14.6,227.64,275,267.06,260.4,39.42,275.33-128.93,275.33-128.93,0,0,134.59-44.63,98.13-171.57,0,0,162.5-164.71-17.31-167.64"/>
  <path fill="#ea6706" d="M2103.56,1901.52c-344.75,531.7-1217.6,423.25-1424.35-42.4-82.8,36.8-86.3-46.05-44.15-197.85-98.05-3-36.75-84.1,50.6-178-52.35-40.65-7.4-79.8,96-117.95.15-.05.2-.05.2-.05-26.15-7.8-50.7-17-73.65-27.45l173.05.25s-193.15,110.5-115.05,155.1c-94.4,112.55-101.55,157.6-18.6,132.9-46.15,141.9-34.2,202.45,38.05,178.75,128.6,378.1,1092.55,515.5,1251.7,5,155-56,260.35-167.87,145.81-196.13,0,0,133.34-184.87,59.54-231.02,4.95-3.2,9.9-6.5,14.85-10,0,0,142.05,32,8.9,248.45,108.55,1.7,44.65,188.95-162.9,280.4Z"/>
  <g opacity="0.5">
    <path fill="#ffffff" d="M368.21,848.56c45.36-198.37,123.83-384.59,363.06-511.74,0,0-40.17-9.42-121.98,31.74-81.82,41.16-158.43,148.8-166.79,157.16-8.36,8.36-52.99,76.4-52.99,92.76s-21.3,86.28-21.3,86.28"/>
  </g>
  <g opacity="0.5">
    <path fill="#ffffff" d="M450.61,361.12c-29.35-56.4,21.82-182.5,233.55-182.5,26.75,30.2,23.95,47.6,23.95,47.6-159.6-18.5-242.35,85.85-240.35,154.25-6.85-4.55-12.75-10.85-17.15-19.35Z"/>
  </g>
  <path fill="#ea6706" d="M1466.16,1252.92c-.1.05-.15.05-.15.05-194.95,120.2-427.6,146.15-684.15,112.3-255.05-76.1-354.1-285.85-392.35-427.1l5.2-19.35c508.35,744.7,1580.62-8.53,1005.3-686.25h.05c362.95,221.2,451.35,752.8,66.1,1020.35Z"/>
  <g>
    <ellipse fill="#010000" cx="766.23" cy="690.62" rx="148.02" ry="180.74"/>
    <ellipse fill="#ffffff" cx="704.12" cy="677.48" rx="53.18" ry="70.91"/>
  </g>
  <path fill="#010000" d="M1404.59,2273.97c-26.31,0-52.76-1.04-79.26-3.13-145.17-11.45-283.12-53.58-398.94-121.85-116.54-68.7-204.82-161.02-256.25-267.76-23.89,7.29-43.11,4.82-57.27-7.39-29-25.01-29.13-86.21-.05-197.3-21.71-4.14-35.83-13.79-42.1-28.81-15.12-36.25,22.72-89.73,90.25-163.54-11.76-13.31-16.55-27.5-14.25-42.35,4.16-26.86,30.84-50.71,85.09-75.2-182.57-70.53-276.45-211.46-323.66-321.39-54.86-127.77-59.82-239.18-60-243.86-.12-2.88-2.61-72.36,25.01-162.39,20.43-66.59,61.19-154.83,142.16-230.9-32.77,1.63-63.93-7.53-80.25-38.91-16.71-32.13-9.64-77.41,18.45-118.16,35.99-52.23,95.99-84.14,167.01-90.72-17.68-14.28-34.33-32.58-41.3-54.13-6.3-19.45-3.86-39.49,7.05-57.93,16.3-27.57,40.93-44,71.24-47.52,52.83-6.14,115.63,26.88,181.58,95.52,19.71,20.51,47.88,30.51,75.34,26.76,192.08-26.21,371.24,11.66,518.08,109.54,132.19,88.12,229.81,219.93,274.86,371.14,40.65,136.43,34.53,279.92-17.23,404.04-39.31,94.29-103.74,176.07-189.44,241.52,88.81-17.23,203.61-18.25,302.56,49.2,190.98,130.2,319.68,147.57,444.2,59.94,4.04-2.84,9.09-3.85,13.91-2.76,2.01.45,49.54,11.67,70.28,60.86,20.09,47.66,7.54,112.08-37.27,191.71,21.29,7.4,35.47,23.52,40.13,46.55,14.58,71.99-69.91,193.14-219.12,260.67-83.94,127.51-204.86,227.02-350.03,287.98-110.91,46.57-234.29,70.58-360.8,70.58ZM679.2,1841.64c2.13,0,4.26.39,6.28,1.17,4.33,1.67,7.82,4.99,9.71,9.23,93.38,210.27,341.8,360.96,632.89,383.91,26.59,2.1,52.96,3.13,79.01,3.13,287.71,0,538.72-126.42,681.81-347.07,1.85-2.86,4.5-5.12,7.62-6.49,141.65-62.45,214.11-172.46,203.71-223.83-1.13-5.59-4.58-22.61-34.03-23.07-6.29-.1-12.04-3.56-15.07-9.08-3.03-5.52-2.86-12.23.44-17.59,60.8-98.84,59.69-153.19,48.06-181.37-9.82-23.78-29.05-34.41-39.29-38.56-70.23,47.22-142.72,64.29-221.35,52.14-74.18-11.46-155.35-48.57-255.43-116.79-160.54-109.45-376.88-16.01-409.48-.83-1.52.73-3.03,1.46-4.55,2.18-8.67,4.11-19.01.49-23.22-8.11-4.22-8.6-.73-19,7.81-23.32.87-.44,3.36-1.68,7.31-3.52,331.86-161.52,376-466.68,312.42-680.08-77.08-258.71-346.1-511.74-754.66-456-38.52,5.25-77.88-8.65-105.31-37.19-56.42-58.71-111.91-89.74-152.3-85-19.3,2.24-34.49,12.53-45.16,30.57-5.89,9.96-7.12,19.27-3.89,29.31,10.11,31.35,60.19,59.16,78.63,67.24,7.94,3.47,12.15,12.24,9.89,20.6-2.26,8.36-10.33,13.84-18.9,12.82-85.95-9.96-160.63,18.03-199.8,74.87-20.09,29.16-26.61,62.17-16.21,82.16,23.56,45.33,118.6.27,119.56-.19,8.28-4.06,18.3-1.01,22.9,6.99,4.59,8,2.19,18.19-5.49,23.29-227.61,151.11-220.07,414.23-219.96,416.87.04,1.09,5.04,110.56,57.65,232.51,69.87,161.97,186.31,268.27,346.07,315.96,7.22,2.16,12.25,8.69,12.49,16.22.24,7.53-4.37,14.37-11.44,16.97-92.3,34.04-105.28,57.17-106.58,65.53-1.21,7.78,7.52,16.39,15.06,22.25,3.88,3.02,6.31,7.52,6.71,12.41.39,4.9-1.29,9.73-4.63,13.33-87.57,94.1-100.23,127.56-95.43,139.06,1.75,4.18,11.22,8.88,32.58,9.54,5.37.17,10.37,2.79,13.55,7.12s4.21,9.88,2.77,15.06c-39.51,142.22-24.49,174.21-16.2,181.36,7.97,6.88,26.2.32,36.35-4.19,2.26-1,4.69-1.51,7.11-1.51Z"/>
  <g>
    <path fill="#f06800" d="M365.65,800.71s-2.37,62.04,29.07,118.1c20.82,37.13,55.54,64.78,96.49,76.4,127.78,36.25,104.79,210.55-52.25,219.8-186.33,5.07-329.86-55.27-413.82-204.04-21.49-38.07,5.07-85.36,48.78-85.87,38.39-.45,79.58-1.77,101-5.13,82.31-12.89,98.64-93.35,190.74-119.26Z"/>
    <path fill="#e54200" d="M368.21,837.37s-70.58,114.83-5.87,147.56c64.71,32.73,120.99,17.36,120.99,17.36,0,0-79.09-51.08-93.1-91.99"/>
    <path fill="#e54200" d="M439.31,1214.62c-186.3,5.1-329.85-55.25-413.8-204.05-6.6-11.65-8.65-24.2-7.1-36,85.8,125.7,221.6,177.1,394.15,172.4,88.95-5.25,134.85-63.4,134.8-119.45,58.8,62.75,19.75,179.55-108.05,187.1Z"/>
    <path fill="#010000" d="M418.03,1232.79c-191.01,0-328.25-71.67-408.14-213.23-13.27-23.51-13.18-51.46.25-74.75,13.24-22.99,37.01-36.91,63.57-37.21,47.44-.56,81.5-2.26,98.49-4.92,36.26-5.68,58.07-26.72,83.33-51.08,26.12-25.2,55.73-53.76,105.39-67.73,5.38-1.51,11.17-.37,15.57,3.1,4.39,3.46,6.86,8.8,6.66,14.38h0c-.02.58-1.66,58.07,26.84,108.9,18.53,33.04,49.88,57.87,86,68.12,72.9,20.68,100.01,80.42,94.55,130.46-6.28,57.5-55.27,118.04-150.55,123.65-.19,0-.37.02-.55.02-7.21.2-14.34.3-21.4.3ZM349.13,825.13c-28.87,12.64-48.62,31.69-69.31,51.65-27.05,26.1-55.03,53.08-102.21,60.48-18.89,2.96-53.71,4.75-103.5,5.33-14.27.17-26.54,7.34-33.65,19.69-7.18,12.47-7.22,27.45-.09,40.08,77,136.44,207.13,200.28,397.83,195.16,74.7-4.51,112.86-49.68,117.54-92.5,4.72-43.2-22.49-79.7-69.31-92.99-44.97-12.76-83.96-43.62-106.98-84.67-21.1-37.63-28.08-77.35-30.32-102.24Z"/>
    <path fill="#010000" d="M167.97,1138.04c60.69,11.85,126.85,9.05,183.5-17.32,18.84-8.75,36.11-20.63,51.41-34.77,4.03-3.88,10.49-3.7,14.28.42,3.61,3.9,3.49,9.94-.14,13.72-15.93,16.56-34.42,30.88-54.75,41.78-55.75,30.19-121.2,38.11-183.68,32.69-5.87-.58-11.24-1.15-17.73-2.25-23.43-4.84-16.41-39.14,7.11-34.27h0Z"/>
    <path fill="#010000" d="M371.9,1065.28c22.77-4.48,46.8,3.07,63.25,19.51,8.95,8.8,21.7,29.36,4.6,36.32-4.86,1.73-9.51-.03-13.28-2.89-8.68-6.12-15.94-11.1-25.48-15.41-6.64-3.1-15.01-6.52-22.13-9.24-3.93-1.54-7.63-3.12-10.9-5.39-9.59-5.61-6.84-20.86,3.93-22.89h0Z"/>
    <path fill="#010000" d="M273.74,984.09c5.03-14.88,15.87-27.36,31.9-31,13.68-3.21,32.97,1.87,29.5,19.28-1.93,8.21-9.99,13.39-18.19,11.81l-2.12-.41c-5.95-2.26-11.47-.37-16.78,3.59-3.34,2.29-6.39,5.68-9.8,7.68-7.38,5.26-17.51-2.56-14.51-10.95h0Z"/>
  </g>
  <path fill="#010000" d="M1369.16,1328.87c-51.66,19.89-104.37,34.45-159.18,41.6-18.25,2.15-36.71,3.19-55.24,2.79-5.52-.12-9.9-4.69-9.79-10.21.11-5.39,4.48-9.68,9.79-9.79,52.28-2.57,103.35-17.49,152.14-35.93,16.38-6.29,32.97-13.22,48.29-20.56,21.89-9.56,35.99,22.48,13.99,32.09h0Z"/>
  <path fill="#010000" d="M1216.91,1467.42c58.35-49.35,140.84-58.16,203.21-10.96,34.6,27.37,68.63,57.01,106.26,79.83,52.46,33.35,116.06,53.6,173.58,21.52,19.95-9.34,29.19,17.28,35.3,31.29,25.99,69.11-24.7,129.43-80.98,162.45,0,0-.85-30.27-.85-30.27,4.97,2.8,8.1,5.03,12.36,8.23,32.17,23.62,44.7,63.12,19.25,96.97-22.55,29.71-53.16,45.37-84.69,60.91,0,0,8.51-9.03,8.51-9.03-12.07,29.82-38.98,51.48-66.68,65.22-117.34,56.85-312.07,38.42-411.98-46.95-46.2-37.94-72.83-98.51-67.27-158.23,1.7-16.33,25.22-14.77,24.96,1.42-1.17,26.04,3.2,51.88,13.74,75.04,55.35,116.62,236.05,143.11,351.07,122.33,46.2-8.93,104.92-27.07,124.62-71.49,1.62-4.09,4.67-7.19,8.34-8.95,41.69-20,119.35-63.85,51.22-104.71-11.67-5.96-12.07-23.57-.96-30.2,13.35-8.32,26.07-17.39,37.16-27.67,32.6-28.92,47.3-72.79,21.22-110.54,0,0,21.24,4.5,21.24,4.5-43.09,23.64-98.23,25.41-143.45,7.54-65.46-24.51-117.11-71.29-169.92-114.85-51.66-40.7-118.35-33.48-168.77,5.42-12.55,10.7-28.8-7.62-16.48-18.8h0Z"/>
  <path fill="#010000" d="M584.15,353.72l70.67-35.29c10.82-5.32,20.08,9.65,10.59,16.96,0,0-62.72,48.01-62.72,48.01-20.85,14.55-40.79-17.31-18.54-29.69h0Z"/>
  <g opacity="0.5">
    <path fill="#ffffff" d="M1576.92,1312.9s86.65-19.26,165.87,34.3c79.21,53.55,169.59,97.44,223.14,109.34,53.55,11.9,45,49.46-11.16,45.37-56.16-4.09-209.01-60.41-289.34-96.03-80.33-35.62-152.48-74.09-88.51-92.97Z"/>
  </g>
  <g opacity="0.5">
    <path fill="#ffffff" d="M107.16,978.42c-8.44-5.89-3.57-19.2,6.7-18.41,20.47,1.57,63.05,2.36,96.88-13.54,46.3-21.76,57.64-31.43,60.99-13.39,3.35,18.04-27.15,57.27-81.45,64.71-33.62,4.61-68.35-9.07-83.13-19.37Z"/>
  </g>
</svg>